HIERARCHY
ROOT Hips
{
	OFFSET -0.001795 -0.223333 0.028219
	CHANNELS 6 Xposition Yposition Zposition Zrotation Yrotation Xrotation 
	JOINT LeftUpLeg
	{
		OFFSET 0.069520 -0.091406 -0.006815
		CHANNELS 3 Zrotation Yrotation Xrotation
		JOINT LeftLeg
		{
			OFFSET 0.034277 -0.375199 -0.004496
			CHANNELS 3 Zrotation Yrotation Xrotation
			JOINT LeftFoot
			{
				OFFSET -0.013596 -0.397961 -0.043693
				CHANNELS 3 Zrotation Yrotation Xrotation
				JOINT LeftToe
				{
					OFFSET 0.026358 -0.055791 0.119288
					CHANNELS 3 Zrotation Yrotation Xrotation
					End Site
					{
						OFFSET 0.000000 0.000000 0.000000
					}
				}
			}
		}
	}
	JOINT RightUpLeg
	{
		OFFSET -0.067670 -0.090522 -0.004320
		CHANNELS 3 Zrotation Yrotation Xrotation
		JOINT RightLeg
		{
			OFFSET -0.038290 -0.382569 -0.008850
			CHANNELS 3 Zrotation Yrotation Xrotation
			JOINT RightFoot
			{
				OFFSET 0.015774 -0.398415 -0.042312
				CHANNELS 3 Zrotation Yrotation Xrotation
				JOINT RightToe
				{
					OFFSET -0.025372 -0.048144 0.123348
					CHANNELS 3 Zrotation Yrotation Xrotation
					End Site
					{
						OFFSET 0.000000 0.000000 0.000000
					}
				}
			}
		}
	}
	JOINT Spine
	{
		OFFSET -0.002533 0.108963 -0.026696
		CHANNELS 3 Zrotation Yrotation Xrotation
		JOINT Spine1
		{
			OFFSET 0.005487 0.135180 0.001092
			CHANNELS 3 Zrotation Yrotation Xrotation
			JOINT Spine2
			{
				OFFSET 0.001457 0.052922 0.025425
				CHANNELS 3 Zrotation Yrotation Xrotation
				JOINT Neck
				{
					OFFSET -0.002778 0.213870 -0.042857
					CHANNELS 3 Zrotation Yrotation Xrotation
					JOINT Head
					{
						OFFSET 0.005152 0.064970 0.051349
						CHANNELS 3 Zrotation Yrotation Xrotation
						End Site
						{
							OFFSET 0.000000 0.000000 0.000000
						}
					}
				}
				JOINT LeftShoulder
				{
					OFFSET 0.078845 0.121749 -0.034090
					CHANNELS 3 Zrotation Yrotation Xrotation
					JOINT LeftArm
					{
						OFFSET 0.090977 0.030469 -0.008868
						CHANNELS 3 Zrotation Yrotation Xrotation
						JOINT LeftForeArm
						{
							OFFSET 0.259612 -0.012772 -0.027456
							CHANNELS 3 Zrotation Yrotation Xrotation
							JOINT LeftHand
							{
								OFFSET 0.249234 0.008986 -0.001171
								CHANNELS 3 Zrotation Yrotation Xrotation
								End Site
								{
									OFFSET 0.000000 0.000000 0.000000
								}
							}
						}
					}
				}
				JOINT RightShoulder
				{
					OFFSET -0.081759 0.118833 -0.038615
					CHANNELS 3 Zrotation Yrotation Xrotation
					JOINT RightArm
					{
						OFFSET -0.096012 0.032551 -0.009143
						CHANNELS 3 Zrotation Yrotation Xrotation
						JOINT RightForeArm
						{
							OFFSET -0.253742 -0.013329 -0.021401
							CHANNELS 3 Zrotation Yrotation Xrotation
							JOINT RightHand
							{
								OFFSET -0.255298 0.007772 -0.005559
								CHANNELS 3 Zrotation Yrotation Xrotation
								End Site
								{
									OFFSET 0.000000 0.000000 0.000000
								}
							}
						}
					}
				}
			}
		}
	}
}
MOTION
Frames: 11
Frame Time: 0.050000
0.000000 0.968576 0.000000 -0.036851 0.351252 2.990967 -3.431395 -1.037472 -9.076017 -1.570429 0.135644 1.650095 -6.967744 3.906680 38.864365 0.000000 0.000000 0.000000 -5.633851 0.918931 -15.012898 -0.030315 0.321430 8.032111 -1.662178 -11.272500 27.513410 0.000000 0.000000 0.000000 2.731875 -0.387997 5.230021 -0.696036 0.545050 -10.721309 -0.930809 -1.289290 17.399528 2.959560 -1.434284 -12.224917 0.000000 0.000000 0.000000 -11.698501 5.545573 -3.215512 -49.255998 17.909961 -13.820711 -95.603732 -9.984277 13.564278 0.000000 0.000000 0.000000 2.769689 -10.825762 -4.318940 38.147329 -37.858170 -15.230530 114.834372 0.039881 -4.297613 0.000000 0.000000 0.000000 
0.004173 0.966309 0.001269 -0.227201 -0.825122 3.261609 -4.011352 -0.924538 -7.901208 -0.560478 0.036309 0.887289 -6.864276 1.822786 32.714527 0.000000 0.000000 0.000000 -5.815851 0.920233 -14.678514 0.269795 0.322156 9.087912 -2.034770 -11.034622 21.655212 0.000000 0.000000 0.000000 2.820209 -0.405358 5.393526 -0.813650 0.588546 -12.565307 -0.558301 -0.109588 18.599300 3.949914 -1.894524 -14.125473 0.000000 0.000000 0.000000 -11.557928 7.186724 -4.022913 -47.469971 18.964505 -13.721619 -96.503745 -7.410065 10.336908 0.000000 0.000000 0.000000 2.158714 -11.268060 -4.381075 36.688488 -40.435364 -15.303250 115.298077 1.513231 -1.771298 0.000000 0.000000 0.000000 
0.007585 0.964350 0.002275 0.312238 -0.772797 3.122839 -4.248601 -0.906236 -7.646216 -0.741155 0.022442 2.186513 -8.885918 -2.251600 28.354530 0.000000 0.000000 0.000000 -6.172355 0.839773 -13.804535 -0.329480 0.419769 8.809819 -2.806499 -12.211966 21.682052 0.000000 0.000000 0.000000 2.444292 -0.340658 4.773931 -0.771714 0.533369 -10.100154 -1.389982 -0.457047 16.533289 3.640494 -1.949623 -11.380681 0.000000 0.000000 0.000000 -11.302444 8.035004 -4.390250 -47.483772 21.781952 -14.572509 -94.628794 -6.074757 8.277037 0.000000 0.000000 0.000000 3.368136 -11.426030 -4.652376 34.968268 -43.290484 -15.173954 114.389287 3.254753 0.758708 0.000000 0.000000 0.000000 
0.010343 0.963831 0.002972 0.634195 -1.309609 3.441778 -5.240119 -0.929462 -7.467240 -0.025141 -0.057653 1.827755 -8.328522 -2.297057 26.791290 0.000000 0.000000 0.000000 -6.835619 0.796710 -13.715895 -0.270466 0.409669 8.699701 -2.275708 -11.542379 21.909511 0.000000 0.000000 0.000000 1.329494 -0.206209 3.459176 -0.346658 0.327048 -8.305410 -1.818051 -0.608393 15.621741 4.483357 -2.716747 -10.092282 0.000000 0.000000 0.000000 -11.826507 8.835691 -4.814657 -47.656233 23.574025 -15.170511 -91.094732 -7.290569 9.152492 0.000000 0.000000 0.000000 4.537686 -11.275564 -4.824600 33.074037 -43.097465 -14.153083 114.389740 5.244572 3.697316 0.000000 0.000000 0.000000 
0.012554 0.963194 0.003133 0.556893 -1.725130 2.925454 -5.438429 -0.850754 -6.766755 0.504863 -0.131670 2.006750 -8.769482 -3.505749 25.512880 0.000000 0.000000 0.000000 -6.919367 0.742197 -12.515071 -0.417990 0.352853 6.838037 -1.871375 -11.257165 23.229747 0.000000 0.000000 0.000000 0.927339 -0.209629 3.977627 -0.156936 0.246028 -8.382930 -2.001443 -0.953041 15.689518 4.497007 -2.720702 -10.706328 0.000000 0.000000 0.000000 -12.187570 8.671430 -4.711946 -48.188159 24.169324 -15.570955 -91.052447 -11.472267 14.008241 0.000000 0.000000 0.000000 5.080557 -10.411424 -4.600835 34.139264 -40.491993 -14.080663 114.163391 6.986164 6.382147 0.000000 0.000000 0.000000 
0.014687 0.962688 0.002430 0.378311 -2.939960 2.258844 -5.272707 -0.744281 -5.927924 0.802390 -0.147613 1.419512 -9.653563 -4.448173 26.575825 0.000000 0.000000 0.000000 -6.775976 0.744643 -11.899386 -0.501209 0.356761 6.482567 -1.203051 -10.464756 23.010730 0.000000 0.000000 0.000000 0.523182 -0.209738 4.499455 -0.110235 0.190047 -7.856851 -1.886546 0.035813 14.685154 5.691499 -3.488316 -10.853642 0.000000 0.000000 0.000000 -12.317676 8.053106 -4.492092 -47.771484 22.769244 -14.854842 -89.822054 -16.242005 18.639044 0.000000 0.000000 0.000000 6.014429 -8.990809 -4.178508 36.469864 -37.138766 -14.169869 114.261002 11.373173 14.072340 0.000000 0.000000 0.000000 
0.016772 0.962369 0.000506 -0.025422 -3.456312 2.013948 -4.522615 -0.635155 -5.260701 0.677146 -0.132082 1.424503 -10.593740 -6.958196 24.124729 0.000000 0.000000 0.000000 -6.661929 0.760025 -11.880249 -0.284530 0.280177 5.536534 -1.252764 -10.830331 23.927305 0.000000 0.000000 0.000000 0.288119 -0.206578 4.745274 0.151317 0.068470 -7.471682 -1.794897 0.199423 13.344383 6.222513 -3.765393 -11.304145 0.000000 0.000000 0.000000 -13.215453 6.228942 -3.746330 -48.075462 18.913213 -13.469795 -87.802877 -23.598576 25.668679 0.000000 0.000000 0.000000 7.481237 -6.377074 -3.356700 38.945767 -31.248064 -13.438935 113.206621 17.732427 24.205195 0.000000 0.000000 0.000000 
0.019183 0.962061 -0.002517 -0.438559 -3.603624 1.926342 -3.793590 -0.611338 -5.250713 0.412934 -0.106338 1.655519 -11.393823 -8.593310 23.139098 0.000000 0.000000 0.000000 -6.543318 0.790960 -12.302088 -0.071138 0.229802 5.112414 -1.512276 -11.265344 24.073524 0.000000 0.000000 0.000000 -0.294951 -0.184546 5.049259 0.548634 -0.111697 -6.687384 -1.515513 0.292378 11.469806 6.553742 -3.894843 -11.477135 0.000000 0.000000 0.000000 -14.417117 2.812941 -2.262723 -48.049510 12.754991 -11.083704 -83.705821 -32.641917 32.658033 0.000000 0.000000 0.000000 9.725236 -1.952416 -1.791697 41.571800 -23.251167 -11.794086 110.475059 27.556175 37.961961 0.000000 0.000000 0.000000 
0.021515 0.961910 -0.006288 -0.640702 -3.864230 1.564795 -3.347185 -0.573849 -5.026579 -0.122530 -0.047758 2.047056 -11.221379 -9.090491 21.806479 0.000000 0.000000 0.000000 -6.626897 0.804929 -12.681220 -0.258502 0.261283 5.184695 -1.331979 -10.966957 23.622267 0.000000 0.000000 0.000000 -0.672428 -0.163153 5.070062 0.546953 -0.138941 -5.718030 -1.424473 0.360506 9.660946 6.189645 -3.645817 -10.985633 0.000000 0.000000 0.000000 -15.718353 -1.306162 -0.346982 -48.693870 4.828729 -8.146177 -73.654347 -41.081493 34.660744 0.000000 0.000000 0.000000 12.457925 2.847612 0.064433 43.045304 -13.726504 -8.993855 103.746900 36.865882 46.051553 0.000000 0.000000 0.000000 
0.023249 0.961188 -0.010314 -1.023948 -4.605446 1.084403 -2.755659 -0.535908 -4.809551 -0.606474 -0.001006 2.904692 -10.451321 -9.237090 19.624760 0.000000 0.000000 0.000000 -6.406579 0.840184 -12.856510 0.121376 0.224848 5.512685 -1.638625 -11.254063 22.109230 0.000000 0.000000 0.000000 -0.948967 -0.160467 5.518588 0.696040 -0.240245 -4.538731 -1.098324 0.553415 7.932714 6.088427 -3.549666 -10.839975 0.000000 0.000000 0.000000 -17.735808 -5.418084 1.699635 -48.449620 -2.343451 -5.264537 -61.974362 -48.635488 33.685560 0.000000 0.000000 0.000000 14.403452 7.585510 2.132722 44.515976 -4.217478 -5.933054 95.588945 45.629177 50.372484 0.000000 0.000000 0.000000 
0.024248 0.960554 -0.014181 -1.246395 -4.971996 0.491678 -2.298437 -0.528516 -4.841739 -1.095453 0.056429 3.721328 -10.208854 -9.057873 19.367740 0.000000 0.000000 0.000000 -6.592417 0.844827 -13.197700 0.217181 0.225565 5.793079 -1.596653 -11.349160 22.529643 0.000000 0.000000 0.000000 -1.589141 -0.130048 5.815852 0.913003 -0.365954 -3.406147 -0.376342 0.240034 6.292256 5.236059 -3.013971 -10.398580 0.000000 0.000000 0.000000 -18.693419 -8.376336 3.380188 -49.376062 -8.680455 -2.737133 -49.595709 -53.340772 29.496133 0.000000 0.000000 0.000000 15.939750 12.393802 4.332316 45.388173 4.309304 -2.850520 87.098269 51.970201 50.391961 0.000000 0.000000 0.000000 
